<?xml version="1.0" standalone="no"?>
<!DOCTYPE svg PUBLIC "-//W3C//DTD SVG 20010904//EN"
 "http://www.w3.org/TR/2001/REC-SVG-20010904/DTD/svg10.dtd">
<svg version="1.0" xmlns="http://www.w3.org/2000/svg"
 width="1000.000000pt" height="1000.000000pt" viewBox="0 0 1000.000000 1000.000000"
 preserveAspectRatio="xMidYMid meet">
<metadata>
Created by potrace 1.14, written by Peter Selinger 2001-2017
</metadata>
<g transform="translate(0.000000,1000.000000) scale(0.100000,-0.100000)"
fill="#000000" stroke="none">
<path d="M865 9590 c-336 -50 -636 -277 -776 -587 -71 -157 -104 -378 -80
-541 19 -126 1875 -7368 1911 -7455 47 -112 136 -241 231 -332 135 -130 281
-211 465 -257 l89 -23 2295 0 2295 0 88 22 c123 32 221 75 324 142 164 109
314 294 382 471 34 88 1885 7320 1902 7430 15 96 6 260 -20 365 -43 177 -128
329 -258 465 -126 132 -276 222 -466 278 l-92 27 -4120 1 c-2266 1 -4142 -2
-4170 -6z m7274 -1255 c259 -61 443 -307 428 -570 -3 -63 -98 -447 -446 -1799
-490 -1908 -459 -1802 -576 -1920 -64 -64 -142 -111 -235 -143 -52 -17 -138
-18 -1808 -23 l-1754 -5 310 -199 309 -199 139 -606 c118 -519 138 -617 138
-686 -3 -245 -165 -457 -409 -532 -54 -16 -101 -18 -480 -18 -464 0 -467 0
-599 67 -84 42 -184 145 -229 233 -29 59 -154 537 -762 2910 -576 2248 -729
2857 -732 2920 -13 211 106 419 293 518 136 71 -134 65 3269 66 2712 1 3088
-1 3144 -14z"/>
<path d="M2962 6750 c2 -5 140 -117 307 -247 l305 -238 76 -292 c83 -319 99
-355 184 -420 87 -67 8 -63 1310 -63 1330 0 1234 -6 1326 77 95 85 91 73 190
655 48 288 86 526 83 530 -7 12 -3785 10 -3781 -2z"/>
</g>
</svg>
